PathFileType	4	(X/Y/Z)	..\data\2014001\dynamic\2014001_C4_04.trc
DataRate	CameraRate	NumFrames	NumMarkers	Units	OrigDataRate	OrigDataStartFrame	OrigNumFrames
100.000000	100.000000	4	52	mm	100.000000	38	155
Frame#	Time	L_IAS			L_IPS			R_IPS			R_IAS			L_FTC			L_FLE			L_FME			L_FAX			L_TTC			L_FAL			L_TAM			L_FCC			L_FM1			L_FM2			L_FM5			R_FTC			R_FLE			R_FME			R_FAX			R_TTC			R_FAL			R_TAM			R_FCC			R_FM1			R_FM2			R_FM5			CV7			TV10			SXS			SJN			L_SIA			L_SRS			L_SAA			L_SAE			L_HLE			L_HME			L_UOA			L_RSP			L_UHE			L_HM2			L_HM5			R_SIA			R_SRS			R_SAA			R_SAE			R_HLE			R_HME			R_UOA			R_RSP			R_UHE			R_HM2			R_HM5			
		X1	Y1	Z1	X2	Y2	Z2	X3	Y3	Z3	X4	Y4	Z4	X5	Y5	Z5	X6	Y6	Z6	X7	Y7	Z7	X8	Y8	Z8	X9	Y9	Z9	X10	Y10	Z10	X11	Y11	Z11	X12	Y12	Z12	X13	Y13	Z13	X14	Y14	Z14	X15	Y15	Z15	X16	Y16	Z16	X17	Y17	Z17	X18	Y18	Z18	X19	Y19	Z19	X20	Y20	Z20	X21	Y21	Z21	X22	Y22	Z22	X23	Y23	Z23	X24	Y24	Z24	X25	Y25	Z25	X26	Y26	Z26	X27	Y27	Z27	X28	Y28	Z28	X29	Y29	Z29	X30	Y30	Z30	X31	Y31	Z31	X32	Y32	Z32	X33	Y33	Z33	X34	Y34	Z34	X35	Y35	Z35	X36	Y36	Z36	X37	Y37	Z37	X38	Y38	Z38	X39	Y39	Z39	X40	Y40	Z40	X41	Y41	Z41	X42	Y42	Z42	X43	Y43	Z43	X44	Y44	Z44	X45	Y45	Z45	X46	Y46	Z46	X47	Y47	Z47	X48	Y48	Z48	X49	Y49	Z49	X50	Y50	Z50	X51	Y51	Z51	X52	Y52	Z52	

39	0.38	338.5896606445313	882.746520996094	-396.933319091797	164.0223693847657	920.7172851562502	-318.9732360839844	165.9328002929688	918.606872558594	-228.8568725585938	343.9320373535157	882.549499511719	-158.6122741699219	270.8469238281251	795.378356933594	-454.8233947753907	414.0392456054689	467.7092285156251	-438.6135253906251	448.3755798339845	461.3723754882814	-325.0888061523438	394.8338317871095	408.1024475097657	-441.9923706054689	460.8423767089845	385.8824768066407	-401.7578430175782	348.0252990722657	92.47056579589845	-400.4523315429689	380.8985595703126	100.5520706176758	-317.2775268554688	307.0593872070313	54.91508102416994	-349.8488769531251	485.4403381347657	48.75579833984376	-346.8198852539063	482.0088500976564	56.67875289916994	-404.6458435058595	433.5038452148439	41.30040359497071	-437.7570190429689	245.3297119140626	788.256530761719	-102.361557006836	218.2302551269532	439.2014770507814	-158.3727111816407	227.8062286376954	432.5961914062501	-278.1102905273438	191.5270385742188	373.8551940917969	-159.3042144775391	252.694564819336	364.6960449218751	-210.0034484863282	122.605453491211	71.4775848388672	-225.4783325195313	165.3761291503907	86.84442138671876	-307.8015747070313	80.29941558837892	33.88023757934571	-284.8059997558594	267.2302551269532	23.70866775512696	-289.7485656738282	270.0397949218751	34.8308334350586	-224.9588470458985	206.6276397705079	23.43526077270508	-182.61669921875	206.1821594238282	1385.4599609375	-277.5023803710938	143.5515594482422	1152.468505859375	-270.3142395019532	375.5253906250001	1158.80712890625	-293.2484741210938	333.0703125000001	1321.139282226563	-290.5180664062501	132.7902069091797	1192.74853515625	-363.6951904296876	156.1558380126953	1322.125	-361.7195739746094	220.9371185302735	1315.294799804688	-474.977508544922	262.0979919433594	1326.089599609375	-465.0449523925782	217.2639312744141	1047.168701171875	-540.5175170898439	191.0799407958985	1016.693603515625	-464.2510681152345	183.7493896484375	1020.071716308594	-512.9733276367189	269.1001281738282	802.516052246094	-524.7684326171876	223.6875152587891	815.404724121094	-590.7100219726564	275.9166564941407	713.4772338867189	-536.3577880859376	199.5316162109376	741.0562133789064	-599.1392822265626	153.5428314208985	1195.818115234375	-153.6870574951172	173.6871643066407	1318.920288085938	-183.2879180908203	261.5940246582032	1320.505981445313	-88.87802124023439	307.7897033691407	1325.547729492188	-106.3295135498047	306.8792114257813	1028.10546875	-7.558043003082277	269.5630187988282	1001.426818847656	-75.94854736328126	278.2380371093751	994.1754150390627	-28.57896804809571	464.1968994140626	865.1425781250002	-61.29518127441408	425.7913513183595	844.1047363281252	6.804177761077883	530.5120239257814	798.1087036132815	-49.4227867126465	448.9085083007814	768.8577270507815	5.440335273742677	
40	0.39	352.7055053710938	880.236999511719	-396.6726379394532	177.6654357910157	918.4599609375002	-319.9675903320313	178.9140167236328	916.7847900390627	-229.9954986572266	356.4938964843751	880.4001464843752	-158.129867553711	284.6408691406251	792.6089477539065	-454.9451599121095	428.3709716796876	465.0997009277345	-437.383758544922	462.1954650878907	459.4720153808595	-324.0668945312501	412.7661132812501	404.4774780273439	-440.8078002929689	479.9539489746095	386.5912475585939	-400.3753967285157	391.818817138672	86.17945098876955	-400.9183349609376	423.4966125488282	96.94108581542972	-317.3060913085938	354.0771179199219	45.09002685546876	-350.5549011230469	532.1075439453126	54.53829193115236	-346.0586547851563	528.5444946289064	62.08228683471681	-403.929656982422	481.9833374023439	42.60644912719727	-437.453094482422	256.0569152832032	787.1832275390627	-102.4322814941407	222.5103759765626	438.8562011718751	-158.6559448242188	233.0693664550782	431.7003479003907	-278.2511291503907	194.8693389892579	373.8420410156251	-159.847885131836	256.4053344726563	363.6779785156251	-209.8977966308594	123.1129684448242	72.07198333740236	-226.6234436035157	166.5935974121094	87.10129547119142	-308.7427978515626	80.99266052246095	34.7798194885254	-286.2980346679688	267.7550659179688	23.6237964630127	-289.6986999511719	270.0925598144532	34.77144241333009	-224.9212951660157	206.3221130371094	23.60904884338379	-183.1109771728516	220.5913696289063	1383.410034179688	-278.0034484863282	157.3786010742188	1150.677856445313	-270.9635620117188	389.4172668457032	1156.355346679688	-293.1162109375001	347.3126525878907	1318.78515625	-290.8989562988282	146.8370056152344	1190.51611328125	-363.7947082519532	170.4622039794922	1319.939331054688	-362.0292358398438	234.9007263183594	1312.883422851563	-475.2070922851564	276.2312622070313	1323.587890625	-465.5700073242189	227.7920989990235	1045.449951171875	-541.2543334960939	201.8928527832032	1015.108703613281	-464.9104919433595	194.2865600585938	1018.879272460938	-513.4450683593751	275.7438354492188	800.0737915039065	-527.5476074218751	229.4781188964844	813.968933105469	-592.6335449218751	281.0173950195313	711.0369873046876	-539.6979980468751	203.9998168945313	739.9874267578126	-600.9087524414064	167.547119140625	1194.1162109375	-153.9374084472657	187.7317047119141	1317.220458984375	-183.738525390625	275.7473449707032	1318.726318359375	-89.24908447265626	321.7647399902344	1323.762451171875	-106.8175354003907	323.3309631347657	1026.989501953125	-6.200146198272707	286.4346313476563	999.445251464844	-74.43733978271486	295.1531372070313	992.4068603515627	-26.9459400177002	484.950164794922	868.7712402343752	-61.59702301025392	447.6541137695314	846.171325683594	6.392564296722414	553.6489257812501	803.9187622070315	-50.51754379272462	473.1648254394532	771.609069824219	4.278657913208009	
41	0.4	366.9091796875001	877.3838500976565	-396.4494628906251	191.4229278564453	915.8723754882815	-321.0810852050782	191.9883728027344	914.7139892578127	-231.2679443359376	369.1306152343751	878.1372070312502	-157.7210998535157	298.4983215332032	789.4373168945315	-455.0517578125001	442.1982421875001	461.932098388672	-436.1945800781251	475.3380432128907	456.8594360351564	-322.9061889648438	430.2521057128907	400.619842529297	-439.6387023925782	498.404510498047	387.0139465332032	-399.0044250488282	435.027557373047	81.39743041992189	-401.3737182617189	465.3389587402345	94.78518676757814	-317.3236083984376	400.6999816894532	37.02714538574219	-351.2175903320313	577.3309326171876	61.81117630004884	-345.1755676269532	573.7783813476564	68.91604614257814	-403.0957641601564	529.4285278320314	45.45821380615235	-437.029510498047	266.9185485839844	786.000427246094	-102.5191421508789	227.2090911865235	438.4471740722657	-158.8997955322266	238.7202606201172	430.704071044922	-278.3724365234376	198.645248413086	373.8168334960938	-160.3284301757813	260.4591064453126	362.5628051757813	-209.7816772460938	123.6474304199219	72.74756622314455	-227.6194152832032	167.7017364501953	87.40969085693361	-309.5906372070313	81.56700134277345	35.83514022827149	-287.5620117187501	268.1801452636719	23.56253051757813	-289.6682739257813	270.1253662109376	34.7247543334961	-224.9051208496094	206.0375061035157	23.76451873779297	-183.5641632080078	235.0191040039063	1381.105834960938	-278.5498046875001	171.2376708984375	1148.639038085938	-271.7200012207032	403.3437500000001	1153.673706054688	-293.0354003906251	361.5781250000001	1316.1953125	-291.3175659179688	160.9505615234375	1188.015625	-364.0201721191407	184.7843170166016	1317.503784179688	-362.4069519042969	248.9362945556641	1310.259887695313	-475.5035705566407	290.4195251464844	1320.8818359375	-466.1257934570314	238.5919342041016	1043.533325195313	-542.0117797851564	213.0707397460938	1013.271728515625	-465.5961303710939	205.1365509033204	1017.445068359375	-513.9188232421876	282.8808898925782	797.5338134765627	-530.3639526367189	235.7060089111329	812.4195556640627	-594.5281372070314	286.6503295898438	708.5269775390626	-543.0708618164064	208.9705963134766	738.8046264648439	-602.6276245117189	181.5263366699219	1192.159423828125	-154.2964019775391	201.740219116211	1315.27685546875	-184.2776794433594	289.8828735351563	1316.673217773438	-89.6754608154297	335.7210083007813	1321.701171875	-107.3722000122071	339.7267150878907	1025.566772460938	-5.061650753021241	303.3159484863282	997.2139892578127	-73.20690917968751	311.9700622558594	990.425964355469	-25.58293533325196	505.2726135253907	872.0566406250002	-61.99129486083986	469.1444702148439	848.0566406250002	5.886834144592286	576.2211914062501	809.348815917969	-51.67919921875001	496.934051513672	774.2051391601565	3.116097450256349	
42	0.41	381.2275085449219	874.2427978515627	-396.2459411621095	205.3031463623047	912.9954223632815	-322.3265686035157	205.1736755371094	912.4184570312502	-232.6883850097657	381.8434753417969	875.7942504882815	-157.3672637939453	312.4943237304688	785.9433593750002	-455.1648864746095	455.703338623047	458.3389892578126	-435.0679931640626	488.0052795410157	453.6876525878907	-321.6163330078126	447.3608398437501	396.6450805664064	-438.4952392578126	516.2919921875001	387.1755981445314	-397.6804809570314	477.0782165527345	78.05303955078126	-401.7461853027345	505.9312744140626	93.95288848876955	-317.2920837402344	446.2597961425782	30.71637725830079	-351.7438049316407	620.6173706054689	70.20491790771486	-344.2186889648438	617.1829833984376	76.82582092285158	-402.1831054687501	575.2089233398439	49.57417678833009	-436.4857482910157	277.9369201660157	784.725769042969	-102.6249008178711	232.3945922851563	437.9844665527345	-159.0848236083985	244.7957000732422	429.6212768554689	-278.4589538574219	202.9179840087891	373.7817687988282	-160.7156066894532	264.9002685546876	361.3661499023438	-209.6437988281251	124.2157058715821	73.53514099121095	-228.4142761230469	168.6993865966797	87.79892730712892	-310.3013610839844	82.01103973388673	37.08539581298829	-288.5414428710938	268.5118408203126	23.5364055633545	-289.6418762207032	270.1619873046876	34.69978332519532	-224.8936462402344	205.7964477539063	23.89962196350098	-183.9483947753907	249.4638671875001	1378.582153320313	-279.1488342285157	185.1360168457032	1146.386108398438	-272.5762023925782	417.3127746582032	1150.802001953125	-293.0188293457032	375.8704223632813	1313.409057617188	-291.7828674316407	175.1297760009766	1185.286010742188	-364.3715209960938	199.1239624023438	1314.857177734375	-362.8580627441407	263.0423889160157	1307.453491210938	-475.8743896484376	304.6623229980469	1318.00048828125	-466.7198181152345	249.6907348632813	1041.430908203125	-542.7855834960939	224.6509399414063	1011.191711425781	-466.3014221191407	216.3280487060547	1015.7822265625	-514.3899536132814	290.5308532714844	794.9031982421877	-533.2017822265626	242.4256286621094	810.771667480469	-596.3989868164064	292.8151855468751	705.9423217773439	-546.4483642578126	214.4914245605469	737.5317993164064	-604.3243408203126	195.495834350586	1189.977172851563	-154.7660827636719	215.7303009033204	1313.119018554688	-184.9055480957032	304.0102844238282	1314.378540039063	-90.16429901123048	349.6749267578126	1319.39990234375	-107.9975280761719	356.0690307617188	1023.848999023438	-4.162440776824952	320.1915588378907	994.7612304687502	-72.28016662597658	328.7090148925782	988.2341918945315	-24.52492904663087	525.1614379882814	874.9795532226565	-62.4718589782715	490.2287902832032	849.736999511719	5.29037094116211	598.2148437500001	814.3677368164065	-52.88558197021486	520.1736450195314	776.6165771484377	1.96178150177002	
